<svg width="1440" height="840" viewBox="0 0 1440 840" fill="none" xmlns="http://www.w3.org/2000/svg">
<path d="M8.48 18.7371V43.2395H41.456V61.256H8.48V86.2629H51.536V105H-16V0H51.536V18.7371H8.48Z" fill="#151314"/>
<path d="M148.912 19.3137H119.392V105H95.056V19.3137H65.536V0H148.912V19.3137Z" fill="#151314"/>
<path d="M254.496 0V105H230.016V60.6074H187.392V105H162.912V0H187.392V43.8881H230.016V0H254.496Z" fill="#151314"/>
<path d="M335.96 64.8593L326.24 36.105C325.52 34.2793 324.752 32.1414 323.936 29.6911C323.12 27.1929 322.304 24.5024 321.488 21.6198C320.768 24.5504 320 27.2649 319.184 29.7632C318.368 32.2615 317.6 34.4235 316.88 36.2491L307.232 64.8593H335.96ZM374.624 105H355.76C353.648 105 351.944 104.52 350.648 103.559C349.352 102.55 348.368 101.277 347.696 99.7392L341.504 81.4345H301.616L295.424 99.7392C294.896 101.084 293.936 102.31 292.544 103.415C291.2 104.472 289.52 105 287.504 105H268.496L309.104 0H334.016L374.624 105Z" fill="#151314"/>
<path d="M480.208 0V105H467.536C465.664 105 464.08 104.712 462.784 104.135C461.536 103.511 460.288 102.454 459.04 100.964L409.576 38.3391C409.768 40.2128 409.888 42.0384 409.936 43.8161C410.032 45.5456 410.08 47.1791 410.08 48.7165V105H388.624V0H401.44C402.496 0 403.384 0.0480433 404.104 0.14413C404.824 0.240217 405.472 0.432393 406.048 0.720658C406.624 0.960878 407.176 1.32121 407.704 1.80165C408.232 2.28208 408.832 2.93068 409.504 3.74742L459.4 66.8051C459.16 64.7872 458.992 62.8415 458.896 60.9677C458.8 59.046 458.752 57.2443 458.752 55.5628V0H480.208Z" fill="#151314"/>
<path d="M557.424 85.5422V105H494.208V0H518.544V85.5422H557.424Z" fill="#151314"/>
<path d="M595.904 18.7371V43.2395H628.88V61.256H595.904V86.2629H638.96V105H571.424V0H638.96V18.7371H595.904Z" fill="#151314"/>
<path d="M677.44 18.7371V43.2395H710.416V61.256H677.44V86.2629H720.496V105H652.96V0H720.496V18.7371H677.44Z" fill="#151314"/>
<path d="M696.016 123.737V148.24H663.04V166.256H696.016V191.263H652.96V210H720.496L720.496 105H652.96L652.96 123.737H696.016Z" fill="#151314"/>
<path d="M614.48 123.737V148.24H581.504V166.256H614.48V191.263H571.424V210H638.96L638.96 105H571.424L571.424 123.737H614.48Z" fill="#151314"/>
<path d="M494.208 190.542V210H557.424L557.424 105L533.088 105V190.542H494.208Z" fill="#151314"/>
<path d="M388.624 105V210H401.296C403.168 210 404.752 209.712 406.048 209.135C407.296 208.511 408.544 207.454 409.792 205.964L459.256 143.339C459.064 145.213 458.944 147.038 458.896 148.816C458.8 150.546 458.752 152.179 458.752 153.717V210H480.208V105L467.392 105C466.336 105 465.448 105.048 464.728 105.144C464.008 105.24 463.36 105.432 462.784 105.721C462.208 105.961 461.656 106.321 461.128 106.802C460.6 107.282 460 107.931 459.328 108.747L409.432 171.805C409.672 169.787 409.84 167.841 409.936 165.968C410.032 164.046 410.08 162.244 410.08 160.563V105H388.624Z" fill="#151314"/>
<path d="M307.16 169.859L316.88 141.105C317.6 139.279 318.368 137.141 319.184 134.691C320 132.193 320.816 129.502 321.632 126.62C322.352 129.55 323.12 132.265 323.936 134.763C324.752 137.261 325.52 139.423 326.24 141.249L335.888 169.859H307.16ZM268.496 210H287.36C289.472 210 291.176 209.52 292.472 208.559C293.768 207.55 294.752 206.277 295.424 204.739L301.616 186.434H341.504L347.696 204.739C348.224 206.084 349.184 207.31 350.576 208.415C351.92 209.472 353.6 210 355.616 210H374.624L334.016 105H309.104L268.496 210Z" fill="#151314"/>
<path d="M162.912 105L162.912 210H187.392V165.607H230.016V210H254.496L254.496 105H230.016L230.016 148.888H187.392L187.392 105H162.912Z" fill="#151314"/>
<path d="M65.5361 124.314H95.0561V210H119.392V124.314H148.912V105H65.5361V124.314Z" fill="#151314"/>
<path d="M27.0561 123.737V148.24H-5.91994V166.256H27.0561V191.263H-15.9999V210H51.5361L51.536 105H-16L-15.9999 123.737H27.0561Z" fill="#151314"/>
<path d="M744.976 18.7371V43.2395H777.952V61.256H744.976V86.2629H788.032V105H720.496V0H788.032V18.7371H744.976Z" fill="#151314"/>
<path d="M885.408 19.3137H855.888V105H831.552V19.3137H802.032V0H885.408V19.3137Z" fill="#151314"/>
<path d="M990.992 0V105H966.512V60.6074H923.888V105H899.408V0H923.888V43.8881H966.512V0H990.992Z" fill="#151314"/>
<path d="M1072.46 64.8593L1062.74 36.105C1062.02 34.2793 1061.25 32.1414 1060.43 29.6911C1059.62 27.1929 1058.8 24.5024 1057.98 21.6198C1057.26 24.5504 1056.5 27.2649 1055.68 29.7632C1054.86 32.2615 1054.1 34.4235 1053.38 36.2491L1043.73 64.8593H1072.46ZM1111.12 105H1092.26C1090.14 105 1088.44 104.52 1087.14 103.559C1085.85 102.55 1084.86 101.277 1084.19 99.7392L1078 81.4345H1038.11L1031.92 99.7392C1031.39 101.084 1030.43 102.31 1029.04 103.415C1027.7 104.472 1026.02 105 1024 105H1004.99L1045.6 0H1070.51L1111.12 105Z" fill="#151314"/>
<path d="M1216.7 0V105H1204.03C1202.16 105 1200.58 104.712 1199.28 104.135C1198.03 103.511 1196.78 102.454 1195.54 100.964L1146.07 38.3391C1146.26 40.2128 1146.38 42.0384 1146.43 43.8161C1146.53 45.5456 1146.58 47.1791 1146.58 48.7165V105H1125.12V0H1137.94C1138.99 0 1139.88 0.0480433 1140.6 0.14413C1141.32 0.240217 1141.97 0.432393 1142.54 0.720658C1143.12 0.960878 1143.67 1.32121 1144.2 1.80165C1144.73 2.28208 1145.33 2.93068 1146 3.74742L1195.9 66.8051C1195.66 64.7872 1195.49 62.8415 1195.39 60.9677C1195.3 59.046 1195.25 57.2443 1195.25 55.5628V0H1216.7Z" fill="#151314"/>
<path d="M1293.92 85.5422V105H1230.7V0H1255.04V85.5422H1293.92Z" fill="#151314"/>
<path d="M1332.4 18.7371V43.2395H1365.38V61.256H1332.4V86.2629H1375.46V105H1307.92V0H1375.46V18.7371H1332.4Z" fill="#151314"/>
<path d="M1413.94 18.7371V43.2395H1446.91V61.256H1413.94V86.2629H1456.99V105H1389.46V0H1456.99V18.7371H1413.94Z" fill="#151314"/>
<path d="M1432.51 123.737V148.24H1399.54V166.256H1432.51V191.263H1389.46V210H1456.99V105H1389.46V123.737H1432.51Z" fill="#151314"/>
<path d="M1350.98 123.737V148.24H1318V166.256H1350.98V191.263H1307.92V210H1375.46V105H1307.92L1307.92 123.737H1350.98Z" fill="#151314"/>
<path d="M1230.7 190.542V210H1293.92V105L1269.58 105V190.542H1230.7Z" fill="#151314"/>
<path d="M1125.12 105V210H1137.79C1139.66 210 1141.25 209.712 1142.54 209.135C1143.79 208.511 1145.04 207.454 1146.29 205.964L1195.75 143.339C1195.56 145.213 1195.44 147.038 1195.39 148.816C1195.3 150.546 1195.25 152.179 1195.25 153.717V210H1216.7V105L1203.89 105C1202.83 105 1201.94 105.048 1201.22 105.144C1200.5 105.24 1199.86 105.432 1199.28 105.721C1198.7 105.961 1198.15 106.321 1197.62 106.802C1197.1 107.282 1196.5 107.931 1195.82 108.747L1145.93 171.805C1146.17 169.787 1146.34 167.841 1146.43 165.968C1146.53 164.046 1146.58 162.244 1146.58 160.563V105H1125.12Z" fill="#151314"/>
<path d="M1043.66 169.859L1053.38 141.105C1054.1 139.279 1054.86 137.141 1055.68 134.691C1056.5 132.193 1057.31 129.502 1058.13 126.62C1058.85 129.55 1059.62 132.265 1060.43 134.763C1061.25 137.261 1062.02 139.423 1062.74 141.249L1072.38 169.859H1043.66ZM1004.99 210H1023.86C1025.97 210 1027.67 209.52 1028.97 208.559C1030.26 207.55 1031.25 206.277 1031.92 204.739L1038.11 186.434H1078L1084.19 204.739C1084.72 206.084 1085.68 207.31 1087.07 208.415C1088.42 209.472 1090.1 210 1092.11 210H1111.12L1070.51 105H1045.6L1004.99 210Z" fill="#151314"/>
<path d="M899.408 105V210H923.888V165.607H966.512V210H990.992V105H966.512V148.888H923.888V105H899.408Z" fill="#151314"/>
<path d="M802.032 124.314H831.552V210H855.888V124.314H885.408V105H802.032V124.314Z" fill="#151314"/>
<path d="M763.552 123.737V148.24H730.576V166.256H763.552V191.263H720.496L720.496 210H788.032L788.032 105H720.496V123.737H763.552Z" fill="#151314"/>
<path d="M8.48 228.737V253.24H41.456V271.256H8.48V296.263H51.536V315H-16L-15.9999 210H51.5361L51.536 228.737H8.48Z" fill="#151314"/>
<path d="M148.912 229.314H119.392V315H95.056V229.314H65.536V210H148.912V229.314Z" fill="#151314"/>
<path d="M254.496 210L254.496 315H230.016V270.607H187.392V315H162.912L162.912 210H187.392L187.392 253.888H230.016L230.016 210H254.496Z" fill="#151314"/>
<path d="M335.96 274.859L326.24 246.105C325.52 244.279 324.752 242.141 323.936 239.691C323.12 237.193 322.304 234.502 321.488 231.62C320.768 234.55 320 237.265 319.184 239.763C318.368 242.261 317.6 244.423 316.88 246.249L307.232 274.859H335.96ZM374.624 315H355.76C353.648 315 351.944 314.52 350.648 313.559C349.352 312.55 348.368 311.277 347.696 309.739L341.504 291.434H301.616L295.424 309.739C294.896 311.084 293.936 312.31 292.544 313.415C291.2 314.472 289.52 315 287.504 315H268.496L309.104 210H334.016L374.624 315Z" fill="#151314"/>
<path d="M480.208 210V315H467.536C465.664 315 464.08 314.712 462.784 314.135C461.536 313.511 460.288 312.454 459.04 310.964L409.576 248.339C409.768 250.213 409.888 252.038 409.936 253.816C410.032 255.546 410.08 257.179 410.08 258.717V315H388.624V210H401.44C402.496 210 403.384 210.048 404.104 210.144C404.824 210.24 405.472 210.432 406.048 210.721C406.624 210.961 407.176 211.321 407.704 211.802C408.232 212.282 408.832 212.931 409.504 213.747L459.4 276.805C459.16 274.787 458.992 272.841 458.896 270.968C458.8 269.046 458.752 267.244 458.752 265.563V210H480.208Z" fill="#151314"/>
<path d="M557.424 295.542V315H494.208L494.208 210H518.544V295.542H557.424Z" fill="#151314"/>
<path d="M595.904 228.737V253.24H628.88V271.256H595.904V296.263H638.96V315H571.424L571.424 210H638.96L638.96 228.737H595.904Z" fill="#151314"/>
<path d="M677.44 228.737V253.24H710.416V271.256H677.44V296.263H720.496V315H652.96L652.96 210H720.496L720.496 228.737H677.44Z" fill="#151314"/>
<path d="M696.016 333.737V358.24H663.04V376.256H696.016V401.263H652.96V420H720.496L720.496 315H652.96L652.96 333.737H696.016Z" fill="#151314"/>
<path d="M614.48 333.737V358.24H581.504V376.256H614.48V401.263H571.424V420H638.96L638.96 315H571.424L571.424 333.737H614.48Z" fill="#151314"/>
<path d="M494.208 400.542V420H557.424L557.424 315H533.088V400.542H494.208Z" fill="#151314"/>
<path d="M388.624 315V420H401.296C403.168 420 404.752 419.712 406.048 419.135C407.296 418.511 408.544 417.454 409.792 415.964L459.256 353.339C459.064 355.213 458.944 357.038 458.896 358.816C458.8 360.546 458.752 362.179 458.752 363.717V420H480.208V315H467.392C466.336 315 465.448 315.048 464.728 315.144C464.008 315.24 463.36 315.432 462.784 315.721C462.208 315.961 461.656 316.321 461.128 316.802C460.6 317.282 460 317.931 459.328 318.747L409.432 381.805C409.672 379.787 409.84 377.841 409.936 375.968C410.032 374.046 410.08 372.244 410.08 370.563V315H388.624Z" fill="#151314"/>
<path d="M307.16 379.859L316.88 351.105C317.6 349.279 318.368 347.141 319.184 344.691C320 342.193 320.816 339.502 321.632 336.62C322.352 339.55 323.12 342.265 323.936 344.763C324.752 347.261 325.52 349.423 326.24 351.249L335.888 379.859H307.16ZM268.496 420H287.36C289.472 420 291.176 419.52 292.472 418.559C293.768 417.55 294.752 416.277 295.424 414.739L301.616 396.434H341.504L347.696 414.739C348.224 416.084 349.184 417.31 350.576 418.415C351.92 419.472 353.6 420 355.616 420H374.624L334.016 315H309.104L268.496 420Z" fill="#151314"/>
<path d="M162.912 315L162.912 420H187.392V375.607H230.016V420H254.496L254.496 315H230.016L230.016 358.888H187.392L187.392 315H162.912Z" fill="#151314"/>
<path d="M65.5361 334.314H95.0561V420H119.392V334.314H148.912V315H65.5361V334.314Z" fill="#151314"/>
<path d="M27.0561 333.737V358.24H-5.91994V376.256H27.0561V401.263H-15.9999V420H51.5361L51.536 315H-16L-15.9999 333.737H27.0561Z" fill="#151314"/>
<path d="M744.976 228.737V253.24H777.952V271.256H744.976V296.263H788.032V315H720.496L720.496 210H788.032V228.737H744.976Z" fill="#151314"/>
<path d="M885.408 229.314H855.888V315H831.552V229.314H802.032V210H885.408V229.314Z" fill="#151314"/>
<path d="M990.992 210L990.992 315H966.512V270.607H923.888V315H899.408V210H923.888L923.888 253.888H966.512V210H990.992Z" fill="#151314"/>
<path d="M1072.46 274.859L1062.74 246.105C1062.02 244.279 1061.25 242.141 1060.43 239.691C1059.62 237.193 1058.8 234.502 1057.98 231.62C1057.26 234.55 1056.5 237.265 1055.68 239.763C1054.86 242.261 1054.1 244.423 1053.38 246.249L1043.73 274.859H1072.46ZM1111.12 315H1092.26C1090.14 315 1088.44 314.52 1087.14 313.559C1085.85 312.55 1084.86 311.277 1084.19 309.739L1078 291.434H1038.11L1031.92 309.739C1031.39 311.084 1030.43 312.31 1029.04 313.415C1027.7 314.472 1026.02 315 1024 315H1004.99L1045.6 210H1070.51L1111.12 315Z" fill="#151314"/>
<path d="M1216.7 210V315H1204.03C1202.16 315 1200.58 314.712 1199.28 314.135C1198.03 313.511 1196.78 312.454 1195.54 310.964L1146.07 248.339C1146.26 250.213 1146.38 252.038 1146.43 253.816C1146.53 255.546 1146.58 257.179 1146.58 258.717V315H1125.12V210H1137.94C1138.99 210 1139.88 210.048 1140.6 210.144C1141.32 210.24 1141.97 210.432 1142.54 210.721C1143.12 210.961 1143.67 211.321 1144.2 211.802C1144.73 212.282 1145.33 212.931 1146 213.747L1195.9 276.805C1195.66 274.787 1195.49 272.841 1195.39 270.968C1195.3 269.046 1195.25 267.244 1195.25 265.563L1195.25 210H1216.7Z" fill="#151314"/>
<path d="M1293.92 295.542V315H1230.7V210H1255.04V295.542H1293.92Z" fill="#151314"/>
<path d="M1332.4 228.737V253.24H1365.38V271.256H1332.4V296.263H1375.46V315H1307.92L1307.92 210H1375.46L1375.46 228.737H1332.4Z" fill="#151314"/>
<path d="M1413.94 228.737V253.24H1446.91V271.256H1413.94V296.263H1456.99V315H1389.46L1389.46 210H1456.99L1456.99 228.737H1413.94Z" fill="#151314"/>
<path d="M1432.51 333.737V358.24H1399.54V376.256H1432.51V401.263H1389.46V420H1456.99V315H1389.46V333.737H1432.51Z" fill="#151314"/>
<path d="M1350.98 333.737V358.24H1318V376.256H1350.98V401.263H1307.92V420H1375.46V315H1307.92V333.737H1350.98Z" fill="#151314"/>
<path d="M1230.7 400.542V420H1293.92V315H1269.58V400.542H1230.7Z" fill="#151314"/>
<path d="M1125.12 315V420H1137.79C1139.66 420 1141.25 419.712 1142.54 419.135C1143.79 418.511 1145.04 417.454 1146.29 415.964L1195.75 353.339C1195.56 355.213 1195.44 357.038 1195.39 358.816C1195.3 360.546 1195.25 362.179 1195.25 363.717V420H1216.7V315H1203.89C1202.83 315 1201.94 315.048 1201.22 315.144C1200.5 315.24 1199.86 315.432 1199.28 315.721C1198.7 315.961 1198.15 316.321 1197.62 316.802C1197.1 317.282 1196.5 317.931 1195.82 318.747L1145.93 381.805C1146.17 379.787 1146.34 377.841 1146.43 375.968C1146.53 374.046 1146.58 372.244 1146.58 370.563V315H1125.12Z" fill="#151314"/>
<path d="M1043.66 379.859L1053.38 351.105C1054.1 349.279 1054.86 347.141 1055.68 344.691C1056.5 342.193 1057.31 339.502 1058.13 336.62C1058.85 339.55 1059.62 342.265 1060.43 344.763C1061.25 347.261 1062.02 349.423 1062.74 351.249L1072.38 379.859H1043.66ZM1004.99 420H1023.86C1025.97 420 1027.67 419.52 1028.97 418.559C1030.26 417.55 1031.25 416.277 1031.92 414.739L1038.11 396.434H1078L1084.19 414.739C1084.72 416.084 1085.68 417.31 1087.07 418.415C1088.42 419.472 1090.1 420 1092.11 420H1111.12L1070.51 315H1045.6L1004.99 420Z" fill="#151314"/>
<path d="M899.408 315L899.408 420H923.888V375.607H966.512V420H990.992V315H966.512L966.512 358.888H923.888V315H899.408Z" fill="#151314"/>
<path d="M802.032 334.314H831.552V420H855.888V334.314H885.408V315H802.032V334.314Z" fill="#151314"/>
<path d="M763.552 333.737V358.24H730.576V376.256H763.552V401.263H720.496L720.496 420H788.032L788.032 315H720.496L720.496 333.737H763.552Z" fill="#151314"/>
<path d="M8.48 438.737V463.24H41.456V481.256H8.48V506.263H51.536V525H-16L-15.9999 420H51.5361L51.536 438.737H8.48Z" fill="#151314"/>
<path d="M148.912 439.314H119.392V525H95.056V439.314H65.536V420H148.912V439.314Z" fill="#151314"/>
<path d="M254.496 420L254.496 525H230.016V480.607H187.392V525H162.912L162.912 420H187.392L187.392 463.888H230.016L230.016 420H254.496Z" fill="#151314"/>
<path d="M335.96 484.859L326.24 456.105C325.52 454.279 324.752 452.141 323.936 449.691C323.12 447.193 322.304 444.502 321.488 441.62C320.768 444.55 320 447.265 319.184 449.763C318.368 452.261 317.6 454.423 316.88 456.249L307.232 484.859H335.96ZM374.624 525H355.76C353.648 525 351.944 524.52 350.648 523.559C349.352 522.55 348.368 521.277 347.696 519.739L341.504 501.434H301.616L295.424 519.739C294.896 521.084 293.936 522.31 292.544 523.415C291.2 524.472 289.52 525 287.504 525H268.496L309.104 420H334.016L374.624 525Z" fill="#151314"/>
<path d="M480.208 420V525H467.536C465.664 525 464.08 524.712 462.784 524.135C461.536 523.511 460.288 522.454 459.04 520.964L409.576 458.339C409.768 460.213 409.888 462.038 409.936 463.816C410.032 465.546 410.08 467.179 410.08 468.717V525H388.624V420H401.44C402.496 420 403.384 420.048 404.104 420.144C404.824 420.24 405.472 420.432 406.048 420.721C406.624 420.961 407.176 421.321 407.704 421.802C408.232 422.282 408.832 422.931 409.504 423.747L459.4 486.805C459.16 484.787 458.992 482.841 458.896 480.968C458.8 479.046 458.752 477.244 458.752 475.563V420H480.208Z" fill="#151314"/>
<path d="M557.424 505.542V525H494.208L494.208 420H518.544V505.542H557.424Z" fill="#151314"/>
<path d="M595.904 438.737V463.24H628.88V481.256H595.904V506.263H638.96V525H571.424L571.424 420H638.96L638.96 438.737H595.904Z" fill="#151314"/>
<path d="M677.44 438.737V463.24H710.416V481.256H677.44V506.263H720.496V525H652.96L652.96 420H720.496L720.496 438.737H677.44Z" fill="#151314"/>
<path d="M696.016 543.737V568.24H663.04V586.256H696.016V611.263H652.96V630H720.496L720.496 525H652.96L652.96 543.737H696.016Z" fill="#151314"/>
<path d="M614.48 543.737V568.24H581.504V586.256H614.48V611.263H571.424V630H638.96L638.96 525H571.424L571.424 543.737H614.48Z" fill="#151314"/>
<path d="M494.208 610.542V630H557.424L557.424 525H533.088V610.542H494.208Z" fill="#151314"/>
<path d="M388.624 525V630H401.296C403.168 630 404.752 629.712 406.048 629.135C407.296 628.511 408.544 627.454 409.792 625.964L459.256 563.339C459.064 565.213 458.944 567.038 458.896 568.816C458.8 570.546 458.752 572.179 458.752 573.717V630H480.208V525H467.392C466.336 525 465.448 525.048 464.728 525.144C464.008 525.24 463.36 525.432 462.784 525.721C462.208 525.961 461.656 526.321 461.128 526.802C460.6 527.282 460 527.931 459.328 528.747L409.432 591.805C409.672 589.787 409.84 587.841 409.936 585.968C410.032 584.046 410.08 582.244 410.08 580.563V525H388.624Z" fill="#151314"/>
<path d="M307.16 589.859L316.88 561.105C317.6 559.279 318.368 557.141 319.184 554.691C320 552.193 320.816 549.502 321.632 546.62C322.352 549.55 323.12 552.265 323.936 554.763C324.752 557.261 325.52 559.423 326.24 561.249L335.888 589.859H307.16ZM268.496 630H287.36C289.472 630 291.176 629.52 292.472 628.559C293.768 627.55 294.752 626.277 295.424 624.739L301.616 606.434H341.504L347.696 624.739C348.224 626.084 349.184 627.31 350.576 628.415C351.92 629.472 353.6 630 355.616 630H374.624L334.016 525H309.104L268.496 630Z" fill="#151314"/>
<path d="M162.912 525L162.912 630H187.392V585.607H230.016V630H254.496L254.496 525H230.016L230.016 568.888H187.392L187.392 525H162.912Z" fill="#151314"/>
<path d="M65.5361 544.314H95.0561V630H119.392V544.314H148.912V525H65.5361V544.314Z" fill="#151314"/>
<path d="M27.0561 543.737V568.24H-5.91994V586.256H27.0561V611.263H-15.9999V630H51.5361L51.536 525H-16L-15.9999 543.737H27.0561Z" fill="#151314"/>
<path d="M744.976 438.737V463.24H777.952V481.256H744.976V506.263H788.032V525H720.496L720.496 420H788.032L788.032 438.737H744.976Z" fill="#151314"/>
<path d="M885.408 439.314H855.888V525H831.552V439.314H802.032V420H885.408V439.314Z" fill="#151314"/>
<path d="M990.992 420L990.992 525H966.512V480.607H923.888V525H899.408L899.408 420H923.888L923.888 463.888H966.512L966.512 420H990.992Z" fill="#151314"/>
<path d="M1072.46 484.859L1062.74 456.105C1062.02 454.279 1061.25 452.141 1060.43 449.691C1059.62 447.193 1058.8 444.502 1057.98 441.62C1057.26 444.55 1056.5 447.265 1055.68 449.763C1054.86 452.261 1054.1 454.423 1053.38 456.249L1043.73 484.859H1072.46ZM1111.12 525H1092.26C1090.14 525 1088.44 524.52 1087.14 523.559C1085.85 522.55 1084.86 521.277 1084.19 519.739L1078 501.434H1038.11L1031.92 519.739C1031.39 521.084 1030.43 522.31 1029.04 523.415C1027.7 524.472 1026.02 525 1024 525H1004.99L1045.6 420H1070.51L1111.12 525Z" fill="#151314"/>
<path d="M1216.7 420V525H1204.03C1202.16 525 1200.58 524.712 1199.28 524.135C1198.03 523.511 1196.78 522.454 1195.54 520.964L1146.07 458.339C1146.26 460.213 1146.38 462.038 1146.43 463.816C1146.53 465.546 1146.58 467.179 1146.58 468.717V525H1125.12V420H1137.94C1138.99 420 1139.88 420.048 1140.6 420.144C1141.32 420.24 1141.97 420.432 1142.54 420.721C1143.12 420.961 1143.67 421.321 1144.2 421.802C1144.73 422.282 1145.33 422.931 1146 423.747L1195.9 486.805C1195.66 484.787 1195.49 482.841 1195.39 480.968C1195.3 479.046 1195.25 477.244 1195.25 475.563L1195.25 420H1216.7Z" fill="#151314"/>
<path d="M1293.92 505.542V525H1230.7V420H1255.04V505.542H1293.92Z" fill="#151314"/>
<path d="M1332.4 438.737V463.24H1365.38V481.256H1332.4V506.263H1375.46V525H1307.92V420H1375.46L1375.46 438.737H1332.4Z" fill="#151314"/>
<path d="M1413.94 438.737V463.24H1446.91V481.256H1413.94V506.263H1456.99V525H1389.46L1389.46 420H1456.99L1456.99 438.737H1413.94Z" fill="#151314"/>
<path d="M1432.51 543.737V568.24H1399.54V586.256H1432.51V611.263H1389.46V630H1456.99V525H1389.46V543.737H1432.51Z" fill="#151314"/>
<path d="M1350.98 543.737V568.24H1318V586.256H1350.98V611.263H1307.92V630H1375.46V525H1307.92L1307.92 543.737H1350.98Z" fill="#151314"/>
<path d="M1230.7 610.542V630H1293.92V525H1269.58V610.542H1230.7Z" fill="#151314"/>
<path d="M1125.12 525V630H1137.79C1139.66 630 1141.25 629.712 1142.54 629.135C1143.79 628.511 1145.04 627.454 1146.29 625.964L1195.75 563.339C1195.56 565.213 1195.44 567.038 1195.39 568.816C1195.3 570.546 1195.25 572.179 1195.25 573.717V630H1216.7V525H1203.89C1202.83 525 1201.94 525.048 1201.22 525.144C1200.5 525.24 1199.86 525.432 1199.28 525.721C1198.7 525.961 1198.15 526.321 1197.62 526.802C1197.1 527.282 1196.5 527.931 1195.82 528.747L1145.93 591.805C1146.17 589.787 1146.34 587.841 1146.43 585.968C1146.53 584.046 1146.58 582.244 1146.58 580.563V525H1125.12Z" fill="#151314"/>
<path d="M1043.66 589.859L1053.38 561.105C1054.1 559.279 1054.86 557.141 1055.68 554.691C1056.5 552.193 1057.31 549.502 1058.13 546.62C1058.85 549.55 1059.62 552.265 1060.43 554.763C1061.25 557.261 1062.02 559.423 1062.74 561.249L1072.38 589.859H1043.66ZM1004.99 630H1023.86C1025.97 630 1027.67 629.52 1028.97 628.559C1030.26 627.55 1031.25 626.277 1031.92 624.739L1038.11 606.434H1078L1084.19 624.739C1084.72 626.084 1085.68 627.31 1087.07 628.415C1088.42 629.472 1090.1 630 1092.11 630H1111.12L1070.51 525H1045.6L1004.99 630Z" fill="#151314"/>
<path d="M899.408 525V630H923.888V585.607H966.512V630H990.992V525H966.512V568.888H923.888V525H899.408Z" fill="#151314"/>
<path d="M802.032 544.314H831.552V630H855.888V544.314H885.408V525H802.032V544.314Z" fill="#151314"/>
<path d="M763.552 543.737V568.24H730.576V586.256H763.552V611.263H720.496L720.496 630H788.032L788.032 525H720.496V543.737H763.552Z" fill="#151314"/>
<path d="M8.48 648.737V673.24H41.456V691.256H8.48V716.263H51.536V735H-16L-15.9999 630H51.5361L51.536 648.737H8.48Z" fill="#151314"/>
<path d="M148.912 649.314H119.392V735H95.056V649.314H65.536V630H148.912V649.314Z" fill="#151314"/>
<path d="M254.496 630L254.496 735H230.016V690.607H187.392V735H162.912L162.912 630H187.392L187.392 673.888H230.016L230.016 630H254.496Z" fill="#151314"/>
<path d="M335.96 694.859L326.24 666.105C325.52 664.279 324.752 662.141 323.936 659.691C323.12 657.193 322.304 654.502 321.488 651.62C320.768 654.55 320 657.265 319.184 659.763C318.368 662.261 317.6 664.423 316.88 666.249L307.232 694.859H335.96ZM374.624 735H355.76C353.648 735 351.944 734.52 350.648 733.559C349.352 732.55 348.368 731.277 347.696 729.739L341.504 711.434H301.616L295.424 729.739C294.896 731.084 293.936 732.31 292.544 733.415C291.2 734.472 289.52 735 287.504 735H268.496L309.104 630H334.016L374.624 735Z" fill="#151314"/>
<path d="M480.208 630V735H467.536C465.664 735 464.08 734.712 462.784 734.135C461.536 733.511 460.288 732.454 459.04 730.964L409.576 668.339C409.768 670.213 409.888 672.038 409.936 673.816C410.032 675.546 410.08 677.179 410.08 678.717V735H388.624V630H401.44C402.496 630 403.384 630.048 404.104 630.144C404.824 630.24 405.472 630.432 406.048 630.721C406.624 630.961 407.176 631.321 407.704 631.802C408.232 632.282 408.832 632.931 409.504 633.747L459.4 696.805C459.16 694.787 458.992 692.841 458.896 690.968C458.8 689.046 458.752 687.244 458.752 685.563V630H480.208Z" fill="#151314"/>
<path d="M557.424 715.542V735H494.208L494.208 630H518.544V715.542H557.424Z" fill="#151314"/>
<path d="M595.904 648.737V673.24H628.88V691.256H595.904V716.263H638.96V735H571.424L571.424 630H638.96L638.96 648.737H595.904Z" fill="#151314"/>
<path d="M677.44 648.737V673.24H710.416V691.256H677.44V716.263H720.496V735H652.96L652.96 630H720.496L720.496 648.737H677.44Z" fill="#151314"/>
<path d="M696.016 753.737V778.24H663.04V796.256H696.016V821.263H652.96V840H720.496L720.496 735H652.96L652.96 753.737H696.016Z" fill="#151314"/>
<path d="M614.48 753.737V778.24H581.504V796.256H614.48V821.263H571.424V840H638.96L638.96 735H571.424L571.424 753.737H614.48Z" fill="#151314"/>
<path d="M494.208 820.542V840H557.424L557.424 735H533.088V820.542H494.208Z" fill="#151314"/>
<path d="M388.624 735V840H401.296C403.168 840 404.752 839.712 406.048 839.135C407.296 838.511 408.544 837.454 409.792 835.964L459.256 773.339C459.064 775.213 458.944 777.038 458.896 778.816C458.8 780.546 458.752 782.179 458.752 783.717V840H480.208V735H467.392C466.336 735 465.448 735.048 464.728 735.144C464.008 735.24 463.36 735.432 462.784 735.721C462.208 735.961 461.656 736.321 461.128 736.802C460.6 737.282 460 737.931 459.328 738.747L409.432 801.805C409.672 799.787 409.84 797.841 409.936 795.968C410.032 794.046 410.08 792.244 410.08 790.563V735H388.624Z" fill="#151314"/>
<path d="M307.16 799.859L316.88 771.105C317.6 769.279 318.368 767.141 319.184 764.691C320 762.193 320.816 759.502 321.632 756.62C322.352 759.55 323.12 762.265 323.936 764.763C324.752 767.261 325.52 769.423 326.24 771.249L335.888 799.859H307.16ZM268.496 840H287.36C289.472 840 291.176 839.52 292.472 838.559C293.768 837.55 294.752 836.277 295.424 834.739L301.616 816.434H341.504L347.696 834.739C348.224 836.084 349.184 837.31 350.576 838.415C351.92 839.472 353.6 840 355.616 840H374.624L334.016 735H309.104L268.496 840Z" fill="#151314"/>
<path d="M162.912 735L162.912 840H187.392V795.607H230.016V840H254.496L254.496 735H230.016L230.016 778.888H187.392L187.392 735H162.912Z" fill="#151314"/>
<path d="M65.5361 754.314H95.0561V840H119.392V754.314H148.912V735H65.5361V754.314Z" fill="#151314"/>
<path d="M27.0561 753.737V778.24H-5.91994V796.256H27.0561V821.263H-15.9999V840H51.5361L51.536 735H-16L-15.9999 753.737H27.0561Z" fill="#151314"/>
<path d="M744.976 648.737V673.24H777.952V691.256H744.976V716.263H788.032V735H720.496L720.496 630H788.032V648.737H744.976Z" fill="#151314"/>
<path d="M885.408 649.314H855.888V735H831.552V649.314H802.032V630H885.408V649.314Z" fill="#151314"/>
<path d="M990.992 630L990.992 735H966.512V690.607H923.888V735H899.408V630H923.888L923.888 673.888H966.512V630H990.992Z" fill="#151314"/>
<path d="M1072.46 694.859L1062.74 666.105C1062.02 664.279 1061.25 662.141 1060.43 659.691C1059.62 657.193 1058.8 654.502 1057.98 651.62C1057.26 654.55 1056.5 657.265 1055.68 659.763C1054.86 662.261 1054.1 664.423 1053.38 666.249L1043.73 694.859H1072.46ZM1111.12 735H1092.26C1090.14 735 1088.44 734.52 1087.14 733.559C1085.85 732.55 1084.86 731.277 1084.19 729.739L1078 711.434H1038.11L1031.92 729.739C1031.39 731.084 1030.43 732.31 1029.04 733.415C1027.7 734.472 1026.02 735 1024 735H1004.99L1045.6 630H1070.51L1111.12 735Z" fill="#151314"/>
<path d="M1216.7 630V735H1204.03C1202.16 735 1200.58 734.712 1199.28 734.135C1198.03 733.511 1196.78 732.454 1195.54 730.964L1146.07 668.339C1146.26 670.213 1146.38 672.038 1146.43 673.816C1146.53 675.546 1146.58 677.179 1146.58 678.717V735H1125.12V630H1137.94C1138.99 630 1139.88 630.048 1140.6 630.144C1141.32 630.24 1141.97 630.432 1142.54 630.721C1143.12 630.961 1143.67 631.321 1144.2 631.802C1144.73 632.282 1145.33 632.931 1146 633.747L1195.9 696.805C1195.66 694.787 1195.49 692.841 1195.39 690.968C1195.3 689.046 1195.25 687.244 1195.25 685.563L1195.25 630H1216.7Z" fill="#151314"/>
<path d="M1293.92 715.542V735H1230.7V630H1255.04V715.542H1293.92Z" fill="#151314"/>
<path d="M1332.4 648.737V673.24H1365.38V691.256H1332.4V716.263H1375.46V735H1307.92L1307.92 630H1375.46L1375.46 648.737H1332.4Z" fill="#151314"/>
<path d="M1413.94 648.737V673.24H1446.91V691.256H1413.94V716.263H1456.99V735H1389.46L1389.46 630H1456.99L1456.99 648.737H1413.94Z" fill="#151314"/>
<path d="M1432.51 753.737V778.24H1399.54V796.256H1432.51V821.263H1389.46V840H1456.99V735H1389.46V753.737H1432.51Z" fill="#151314"/>
<path d="M1350.98 753.737V778.24H1318V796.256H1350.98V821.263H1307.92V840H1375.46V735H1307.92V753.737H1350.98Z" fill="#151314"/>
<path d="M1230.7 820.542V840H1293.92V735H1269.58V820.542H1230.7Z" fill="#151314"/>
<path d="M1125.12 735V840H1137.79C1139.66 840 1141.25 839.712 1142.54 839.135C1143.79 838.511 1145.04 837.454 1146.29 835.964L1195.75 773.339C1195.56 775.213 1195.44 777.038 1195.39 778.816C1195.3 780.546 1195.25 782.179 1195.25 783.717V840H1216.7V735H1203.89C1202.83 735 1201.94 735.048 1201.22 735.144C1200.5 735.24 1199.86 735.432 1199.28 735.721C1198.7 735.961 1198.15 736.321 1197.62 736.802C1197.1 737.282 1196.5 737.931 1195.82 738.747L1145.93 801.805C1146.17 799.787 1146.34 797.841 1146.43 795.968C1146.53 794.046 1146.58 792.244 1146.58 790.563V735H1125.12Z" fill="#151314"/>
<path d="M1043.66 799.859L1053.38 771.105C1054.1 769.279 1054.86 767.141 1055.68 764.691C1056.5 762.193 1057.31 759.502 1058.13 756.62C1058.85 759.55 1059.62 762.265 1060.43 764.763C1061.25 767.261 1062.02 769.423 1062.74 771.249L1072.38 799.859H1043.66ZM1004.99 840H1023.86C1025.97 840 1027.67 839.52 1028.97 838.559C1030.26 837.55 1031.25 836.277 1031.92 834.739L1038.11 816.434H1078L1084.19 834.739C1084.72 836.084 1085.68 837.31 1087.07 838.415C1088.42 839.472 1090.1 840 1092.11 840H1111.12L1070.51 735H1045.6L1004.99 840Z" fill="#151314"/>
<path d="M899.408 735L899.408 840H923.888V795.607H966.512V840H990.992V735H966.512L966.512 778.888H923.888V735H899.408Z" fill="#151314"/>
<path d="M802.032 754.314H831.552V840H855.888V754.314H885.408V735H802.032V754.314Z" fill="#151314"/>
<path d="M763.552 753.737V778.24H730.576V796.256H763.552V821.263H720.496L720.496 840H788.032L788.032 735H720.496L720.496 753.737H763.552Z" fill="#151314"/>
</svg>
