<svg width="160" height="192" viewBox="0 0 160 192" fill="none" xmlns="http://www.w3.org/2000/svg">
<path id="L" d="M134.12 191.448C133.136 191.448 132.917 190.683 133.464 189.152C134.12 187.731 134.721 186.419 135.268 185.216C136.252 183.248 136.744 180.187 136.744 176.032C136.744 172.424 136.088 168.543 134.776 164.388C133.464 160.233 130.895 156.461 127.068 153.072C121.82 148.261 115.916 144.435 109.356 141.592C102.796 138.749 95.908 136.453 88.692 134.704C81.5854 132.955 74.5334 131.424 67.536 130.112C63.272 136.016 58.68 141.319 53.76 146.02C48.9494 150.721 43.8107 154.329 38.344 156.844C35.2827 158.265 32.3307 159.304 29.488 159.96C26.6454 160.725 23.9667 161.108 21.452 161.108C15.3294 161.108 10.3 159.468 6.36402 156.188C2.53736 153.017 0.624023 149.245 0.624023 144.872C0.624023 140.717 2.48269 136.672 6.20002 132.736C10.0267 128.691 16.3134 125.356 25.06 122.732C28.5587 121.748 32.44 121.037 36.704 120.6C40.968 120.053 45.396 119.78 49.988 119.78C52.8307 119.78 55.6187 119.889 58.352 120.108C61.1947 120.217 63.8187 120.545 66.224 121.092C69.3947 116.281 72.3467 111.307 75.08 106.168C77.8134 100.92 80.656 95.2347 83.608 89.112C74.9707 89.3307 67.4814 88.0733 61.14 85.34C54.7987 82.4973 49.8787 78.7253 46.38 74.024C42.9907 69.3227 41.296 64.2933 41.296 58.936C41.296 54.5627 42.5534 50.2987 45.068 46.144C47.5827 41.88 51.5187 38.0533 56.876 34.664C62.3427 31.1653 69.2854 28.432 77.704 26.464C78.2507 26.2453 78.7427 26.136 79.18 26.136C79.7267 26.136 80.2187 26.136 80.656 26.136C82.296 26.136 83.116 26.464 83.116 27.12C83.116 28.2133 81.3667 28.9787 77.868 29.416C72.1827 30.072 67.1534 32.0947 62.78 35.484C58.516 38.8733 55.1814 42.9187 52.776 47.62C50.48 52.3213 49.332 57.0773 49.332 61.888C49.332 66.0427 50.316 69.924 52.284 73.532C54.252 77.14 57.368 80.092 61.632 82.388C65.896 84.5747 71.4174 85.668 78.196 85.668C80.6014 85.668 83.1707 85.504 85.904 85.176C86.3414 84.3013 87.052 82.552 88.036 79.928C89.1294 77.1947 90.332 74.1333 91.644 70.744C92.956 67.3547 94.2134 64.0747 95.416 60.904C96.728 57.7333 97.7667 55.1093 98.532 53.032C99.4067 50.8453 99.844 49.752 99.844 49.752C104.873 37.1787 110.012 27.3387 115.26 20.232C120.617 13.016 125.756 7.932 130.676 4.98C135.705 2.028 140.188 0.552002 144.124 0.552002C148.388 0.552002 151.887 1.80934 154.62 4.324C157.463 6.83867 158.993 9.68134 159.212 12.852C159.321 13.836 159.376 14.5467 159.376 14.984C159.376 15.4213 159.376 15.968 159.376 16.624C159.376 23.0747 158.064 29.5253 155.44 35.976C152.925 42.4267 149.372 48.5493 144.78 54.344C140.297 60.1387 135.104 65.3867 129.2 70.088C123.405 74.7893 117.173 78.7253 110.504 81.896C103.944 85.0667 97.2747 87.2533 90.496 88.456C88.856 91.736 87.38 94.688 86.068 97.312C84.8654 99.8267 83.4987 102.56 81.968 105.512C80.4374 108.464 78.4147 112.236 75.9 116.828C75.1347 118.249 74.5334 119.288 74.096 119.944C73.768 120.491 73.2214 121.365 72.456 122.568C77.9227 123.88 83.8814 125.739 90.332 128.144C96.7827 130.44 103.124 133.228 109.356 136.508C115.697 139.679 121.328 143.177 126.248 147.004C132.371 151.705 136.689 157.008 139.204 162.912C141.828 168.816 143.14 174.009 143.14 178.492C143.14 181.663 142.648 184.068 141.664 185.708C140.243 188.113 138.821 189.644 137.4 190.3C135.979 191.065 134.885 191.448 134.12 191.448ZM92.792 84.028C100.227 82.388 107.497 79.436 114.604 75.172C121.711 70.7987 128.107 65.5507 133.792 59.428C139.477 53.196 144.015 46.472 147.404 39.256C150.793 31.9307 152.488 24.496 152.488 16.952C152.488 15.0933 151.996 13.5627 151.012 12.36C150.028 11.1573 148.607 10.556 146.748 10.556C144.233 10.556 141.008 11.9773 137.072 14.82C133.136 17.5533 128.653 22.2 123.624 28.76C118.595 35.2107 113.183 44.1213 107.388 55.492C107.388 55.492 106.623 56.9133 105.092 59.756C103.671 62.5987 101.812 66.2067 99.516 70.58C97.3294 74.844 95.088 79.3267 92.792 84.028ZM19.156 156.352C21.5614 156.352 24.1307 156.024 26.864 155.368C29.7067 154.712 32.6587 153.673 35.72 152.252C44.904 147.769 53.3774 140.007 61.14 128.964C58.6254 128.417 56.0014 128.035 53.268 127.816C50.5347 127.488 47.7467 127.324 44.904 127.324C41.952 127.324 38.8907 127.488 35.72 127.816C32.6587 128.144 29.652 128.745 26.7 129.62C19.3747 131.588 13.744 134.103 9.80802 137.164C5.98136 140.225 4.06802 143.341 4.06802 146.512C4.06802 149.245 5.43469 151.541 8.16802 153.4C10.9014 155.368 14.564 156.352 19.156 156.352Z" fill="#FAFAFA"/>
</svg>
