<svg width="219" height="131" viewBox="0 0 219 131" fill="none" xmlns="http://www.w3.org/2000/svg">
<path d="M0.429 128V0.729994H49.112C55.431 0.729994 61.394 1.41233 67.001 2.77699C72.608 4.112 77.77 6.05516 82.487 8.6065C87.2337 11.1578 91.4908 14.2877 95.2585 17.996C99.0262 21.7043 102.23 25.917 104.871 30.634C107.511 35.351 109.528 40.5427 110.923 46.209C112.317 51.8457 113.014 57.8977 113.014 64.365C113.014 70.8323 112.317 76.8992 110.923 82.5655C109.528 88.2022 107.511 93.379 104.871 98.096C102.23 102.813 99.0262 107.026 95.2585 110.734C91.4908 114.442 87.2337 117.572 82.487 120.123C77.77 122.675 72.608 124.633 67.001 125.997C61.394 127.332 55.431 128 49.112 128H0.429ZM33.092 103.703L29.888 100.499H48.133C51.5447 100.499 54.6893 100.158 57.567 99.4755C60.4743 98.7932 63.0998 97.7697 65.4435 96.405C67.7872 95.0403 69.8638 93.3493 71.6735 91.332C73.4832 89.285 74.9962 86.9265 76.2125 84.2565C77.4288 81.5865 78.3485 78.5902 78.9715 75.2675C79.5945 71.9448 79.906 68.3107 79.906 64.365C79.906 60.4193 79.5945 56.7852 78.9715 53.4625C78.3485 50.1398 77.4288 47.1435 76.2125 44.4735C74.9962 41.8035 73.4832 39.4598 71.6735 37.4425C69.8638 35.3955 67.7872 33.6897 65.4435 32.325C63.0998 30.9603 60.4743 29.9368 57.567 29.2545C54.6893 28.5722 51.5447 28.231 48.133 28.231H29.888L33.092 25.027V103.703ZM149.027 81.364C149.027 85.369 149.517 88.9438 150.496 92.0885C151.504 95.2332 152.958 97.9032 154.857 100.098C156.755 102.294 159.054 103.97 161.754 105.127C164.483 106.254 167.569 106.818 171.01 106.818C173.265 106.818 175.341 106.566 177.24 106.061C179.168 105.527 180.904 104.741 182.447 103.703C184.019 102.665 185.398 101.374 186.585 99.8315C187.772 98.2888 188.81 96.4792 189.7 94.4025H218.269C216.875 100.039 214.724 105.097 211.817 109.577C208.909 114.057 205.379 117.869 201.226 121.013C197.072 124.128 192.355 126.517 187.075 128.178C181.824 129.839 176.172 130.67 170.12 130.67C162.644 130.67 155.821 129.424 149.65 126.932C143.479 124.41 138.184 120.88 133.764 116.341C129.343 111.802 125.917 106.358 123.484 100.009C121.081 93.6312 119.88 86.5853 119.88 78.872C119.88 71.1587 121.081 64.1425 123.484 57.8235C125.887 51.4748 129.269 46.031 133.63 41.492C137.991 36.953 143.227 33.4375 149.339 30.9455C155.45 28.4535 162.199 27.2075 169.586 27.2075C176.973 27.2075 183.678 28.4535 189.7 30.9455C195.722 33.4078 200.87 36.8937 205.142 41.403C209.443 45.8827 212.766 51.2968 215.11 57.6455C217.483 63.9942 218.67 71.0548 218.67 78.8275C218.67 80.0142 218.64 81.2305 218.581 82.4765C218.521 83.7225 218.417 84.9537 218.269 86.17H137.502V69.26H201.493L190.012 85.814C190.101 84.568 190.16 83.3665 190.19 82.2095C190.249 81.0228 190.279 79.8955 190.279 78.8275C190.279 74.1105 189.848 69.9868 188.988 66.4565C188.128 62.9262 186.837 59.9743 185.117 57.601C183.396 55.2277 181.26 53.4625 178.709 52.3055C176.157 51.1188 173.191 50.5255 169.809 50.5255C166.456 50.5255 163.49 51.0892 160.909 52.2165C158.328 53.3438 156.162 55.0052 154.412 57.2005C152.661 59.3662 151.326 62.051 150.407 65.255C149.487 68.459 149.027 72.1377 149.027 76.291V81.364Z" fill="#FAFAFA"/>
</svg>
